# xmcd CD database file
#
# Track frame offsets:
#	150
#	19351
#	41478
#	60444
#	90545
#	107863
#	127580
#	153482
#	177036
#	201494
#	224409
#	234134
#	260886
#	291899
#	316203
#
# Disc length: 4564 seconds
#
# Revision: 0
# Processed by: cddbd v1.5.1PL2 Copyright (c) Steve Scherf et al.
# Submitted via: CDex 1.51
#
DISCID=d011d20f
DTITLE=Stan Getz - Jazzmasters
DYEAR=1900
DGENRE=Jazz
TTITLE0=Chega De Saudade
TTITLE1=Bluez For Junior
TTITLE2=Desafinado
TTITLE3=Bahia
TTITLE4=Ebony Samba
TTITLE5=It Might As Well Be Spring
TTITLE6=Maria Moca
TTITLE7=Corcovado
TTITLE8=O Grande Amor
TTITLE9=Para Machucar Meu Coracao
TTITLE10=Sambalero
TTITLE11=When The World Was Young
TTITLE12=O Moro Nao Tem Vez Favela
TTITLE13=The Girl From Ipanema
TTITLE14=Manha De Carnaval
EXTD=
EXTT0=
EXTT1=
EXTT2=
EXTT3=
EXTT4=
EXTT5=
EXTT6=
EXTT7=
EXTT8=
EXTT9=
EXTT10=
EXTT11=
EXTT12=
EXTT13=
EXTT14=
PLAYORDER=
